<?xml version="1.0" encoding="UTF-8" standalone="no"?>
<!-- Created with Inkscape (http://www.inkscape.org/) -->

<svg
   width="1920"
   height="1080"
   viewBox="0 0 1920 1080"
   version="1.1"
   id="svg1"
   xml:space="preserve"
   inkscape:version="1.4 (86a8ad7, 2024-10-11)"
   sodipodi:docname="그리기.svg"
   xmlns:inkscape="http://www.inkscape.org/namespaces/inkscape"
   xmlns:sodipodi="http://sodipodi.sourceforge.net/DTD/sodipodi-0.dtd"
   xmlns="http://www.w3.org/2000/svg"
   xmlns:svg="http://www.w3.org/2000/svg"><sodipodi:namedview
     id="namedview1"
     pagecolor="#505050"
     bordercolor="#eeeeee"
     borderopacity="1"
     inkscape:showpageshadow="0"
     inkscape:pageopacity="0"
     inkscape:pagecheckerboard="0"
     inkscape:deskcolor="#505050"
     inkscape:document-units="px"
     inkscape:zoom="0.39259259"
     inkscape:cx="1204.8113"
     inkscape:cy="540"
     inkscape:window-width="1920"
     inkscape:window-height="1111"
     inkscape:window-x="-4"
     inkscape:window-y="-4"
     inkscape:window-maximized="1"
     inkscape:current-layer="svg1" /><defs
     id="defs1" /><path
     style="fill:#ffffff;fill-opacity:1;stroke-width:1.28745"
     d="m 121.2018,1068.1689 c 0,-3.7072 28.78041,-81.10732 81.52833,-221.09705 48.69613,-27.99429 199.84406,-72.60714 377.12517,-199.41403 4.47642,29.4134 9.41459,58.77517 14.21272,88.14465 -67.28556,50.31401 -142.14499,88.60815 -216.53937,127.03319 -16.2004,28.65383 -36.43901,55.01108 -55.2155,82.0764 C 184.69749,1029.9112 152.45732,1046.2855 121.2018,1068.1689 Z m 801.99416,-167.0454 -83.83932,-0.15301 -5.96279,-2.37972 -5.96277,-2.37973 -8.18028,-6.2394 -8.18027,-6.23941 -4.51217,-9.93609 -4.51216,-9.93609 -0.053,-13.50721 -0.053,-13.50723 4.68421,-35.97908 4.6842,-35.97909 5.17125,-45.86535 5.17123,-45.86535 3.50256,-11.12666 3.50255,-11.12668 8.42986,-9.8484 8.42987,-9.84841 13.81813,-6.78553 13.81814,-6.78552 91.98582,-0.70968 91.98578,-0.70966 -14.2393,27.86678 -14.2394,27.86679 h -66.4 -66.39998 l -6.8295,3.53166 -6.82949,3.53167 -1.70871,4.31371 -1.70872,4.31373 -8.20538,67.59104 -8.20537,67.59105 -0.0343,8.96744 -0.0343,8.96743 4.66922,2.4989 4.66925,2.4989 h 71.37069 71.37059 v 1.8738 1.87381 l -2.4373,20.45538 -2.4373,20.45538 -1.2296,5.43143 -1.2297,5.43142 z m 143.55864,-0.37887 -30.5221,0.6751 6.8682,-15.15889 6.8683,-15.15889 31.2167,-66.38407 31.2168,-66.38406 28.8337,-62.11653 28.8338,-62.11652 34.2363,-0.0431 34.2364,-0.0431 1.276,4.22444 1.2761,4.22444 27.9874,137.43872 27.9874,137.43871 1.2164,1.96782 1.216,1.96781 h -30.1543 -30.1545 l -1.23,-4.22445 -1.2298,-4.22443 -5.3155,-27.2041 -5.3156,-27.20413 -50.569,0.6505 -50.5691,0.65049 -13.8439,30.17457 -13.8436,30.17457 z m 115.4155,-110.51055 h 34.9722 v -2.22192 -2.22194 l -9.5635,-49.98817 -9.5632,-49.98815 -0.9523,-0.95222 -0.9521,-0.9522 -18.7908,40.48898 -18.7906,40.48898 -5.6659,12.67333 -5.6658,12.67331 z m 200.1533,111.04244 h -29.4061 l 1.0857,-11.46634 1.0856,-11.46634 11.8946,-102.06589 11.8949,-102.06587 v -1.13117 -1.13114 h -41.1132 -41.1133 l -0.9423,-3.01747 -0.9421,-3.01746 -1.1359,-25.95013 -1.1359,-25.95013 h 131.1872 131.1875 l -17.597,28.36409 -17.597,28.36411 -41.2286,0.65962 -41.2289,0.65963 -1.41,8.99624 -1.4099,8.99623 -4.7711,41.03743 -4.7712,41.03742 -6.0343,54.31423 -6.0343,54.31423 -0.5291,10.25936 -0.5292,10.25935 z M 94.149306,717.9263 c 7.784994,-29.05398 16.665634,-60.4243 22.007264,-80.35945 49.00705,49.00707 119.04146,79.28266 191.61922,121.18546 -29.44459,13.62028 -58.82191,27.38471 -88.20468,41.13762 C 172.69715,772.82723 134.04734,757.82434 94.149306,717.9263 Z M 310.69811,705.66644 C 190.59314,661.33215 93.874071,560.40157 0,459.55794 16.574472,397.19968 33.060143,334.81789 49.554747,272.43846 34.491555,56.553545 33.117261,36.793823 35.505997,0 148.49053,92.095834 32.817678,0.15253763 223.77325,160.18905 l 260.73039,-0.0231 C 551.22654,111.86805 601.87808,40.628991 673.99997,1.0180763 673.27875,62.610362 667.49903,124.13581 662.84183,185.53495 l -6.40858,84.4888 c 19.1001,62.31703 36.55746,125.09443 53.92034,187.90985 C 553.69357,630.98821 485.83546,667.86864 396.66627,705.74459 Z m 44.37397,-85.91359 61.64526,20.6083 2.22595,-2.22595 c -14.31263,-17.40126 -35.06655,-27.08251 -54.43195,-37.82392 l 5.32893,-6.56209 c -2.74846,-3.64983 -4.22954,-14.21985 -5.92856,-18.40888 16.56762,-15.75133 30.35115,-31.31906 44.52885,-49.16488 l -4.47455,-3.81763 -49.07056,-0.037 -45.48377,-0.037 c -2.45535,2.45534 -2.4803,1.63451 -4.66065,3.81486 10.97511,18.82829 26.71649,33.59654 41.78157,49.06614 l -5.49735,19.03262 5.82898,5.92539 C 326.45888,608.54963 309.7006,622.33 292.59336,635.8525 v 5.04101 c 21.00394,-6.50157 41.68876,-13.99268 62.47872,-21.14072 z M 285.35147,449.8649 c 8.2e-4,-14.59465 -0.004,-29.18931 0.007,-43.78395 -53.93056,-17.31948 -107.92425,-45.0578 -162.20238,-60.01567 22.60865,40.25595 33.69743,58.72668 71.67287,99.10886 30.17439,1.56695 60.3517,3.07814 90.52372,4.69076 z m 228.8883,-4.96443 c 27.44209,-28.75532 66.82251,-98.31665 66.82251,-98.31665 -51.78014,19.81794 -103.69153,39.28788 -155.65355,58.62271 l -0.0472,44.90066 c 36.28494,-3.1348 45.39908,1.38121 88.8783,-5.20672 z m 357.76275,113.59289 h -28.48763 l -1.42333,-7.84539 -1.42331,-7.84539 -10.91917,-123.11225 -10.91918,-123.11226 -1.48417,-15.08729 -1.4842,-15.08728 h 27.93244 27.93244 l 1.18967,7.84538 1.18966,7.84539 6.31808,85.69579 6.31807,85.69579 0.60883,2.29585 0.60882,2.29587 18.31331,-49.3682 18.31332,-49.36819 16.51099,-46.46884 16.511,-46.46884 h 23.36042 23.36042 l 1.4748,15.08728 1.4748,15.08729 7.1663,72.17342 7.1661,72.17344 0.073,5.07346 0.073,5.07349 2.1081,-3.62094 2.1084,-3.62096 27.7528,-78.45388 27.7528,-78.4539 3.0363,-10.25935 3.0361,-10.25935 h 27.3786 27.3785 v 1.80866 1.80864 l -15.7192,44.6602 -15.719,44.66018 -36.9249,98.9726 -36.9251,98.9726 -25.8541,0.68561 -25.85395,0.68561 -1.07434,-3.09958 -1.07424,-3.09957 -8.48354,-80.6129 -8.48357,-80.61288 -0.65729,-0.64832 -0.6573,-0.64829 -24.65508,64.36343 -24.6551,64.36344 -7.54126,19.91522 -7.54127,19.91521 z m 287.93488,0 h -27.2839 v -3.36662 -3.36664 l 6.0364,-44.30919 6.0366,-44.3092 8.5599,-71.21199 8.56,-71.21199 2.788,-27.15713 2.7879,-27.1571 h 27.2739 27.274 v 5.70969 5.70971 l -6.0348,50.37677 -6.035,50.37677 v 3.05569 3.0557 h 46.5282 46.528 l 5.5642,-48.88282 5.5642,-48.88281 1.343,-10.25935 1.343,-10.25935 h 27.5804 27.5805 l -1.3546,10.25935 -1.3546,10.25935 -6.0393,53.10726 -6.0395,53.10725 -4.7904,44.06246 -4.7903,44.06248 -5.2664,38.61586 -5.2663,38.61585 h -26.1486 -26.1486 l 0.027,-11.46633 0.027,-11.46634 6.0085,-47.00794 6.0083,-47.00794 v -3.08185 -3.08186 h -46.74 -46.74 l -1.5676,13.8803 -1.5676,13.88031 -6.4835,47.67582 -6.4834,47.67583 z m 244.2872,0 h -27.7606 v -10.42445 -10.42446 l 13.2329,-106.0494 13.2326,-106.04939 2.9371,-29.57109 2.9372,-29.57107 h 27.5627 27.5628 l -1.6799,16.29427 -1.6802,16.29427 -14.292,121.16736 -14.292,121.16738 v 8.58328 8.5833 z m 159.9013,-0.52668 -28.3882,0.68031 1.4468,-17.57808 1.4466,-17.57804 5.7717,-47.07234 5.7719,-47.07233 6.0822,-52.75966 6.0825,-52.75966 v -2.27611 -2.2761 l -37.6841,0.72152 -37.684,0.72154 1.6431,-21.72569 1.6433,-21.7257 1.3001,-5.43143 1.3,-5.43141 h 110.6461 110.6461 l -15.6835,24.74314 -15.6835,24.74316 -2.0816,2.08832 -2.0816,2.08832 -29.1727,-0.40242 -29.1726,-0.40243 v 1.17099 1.17098 l -13.1519,106.97857 -13.152,106.97856 -0.7284,10.86285 -0.7283,10.86284 z m 220.3807,0.52668 h -99.4386 l 1.2485,-6.6384 1.2483,-6.63841 1.4932,-14.48379 1.4932,-14.48379 7.0416,-53.10726 7.0416,-53.10725 4.8902,-48.27931 4.8902,-48.27932 11.3722,-23.53617 11.3724,-23.53616 H 1828.5798 1920 l -4.728,7.84538 -4.7281,7.84539 -11.3709,19.91522 -11.3708,19.91522 h -58.9308 -58.9309 l -0.1159,5.43142 -0.1159,5.43143 -3.0428,25.95013 -3.0428,25.95014 h 56.055 56.0549 l -14.291,24.74315 -14.2911,24.74314 -45.2046,1.20698 -45.2045,1.20699 -2.8561,24.13966 -2.8561,24.13966 -0.7565,7.99775 -0.7568,7.99775 64.236,-0.22336 64.236,-0.22337 1.6008,18.77924 1.6009,18.77923 1.3774,10.25936 1.3775,10.25935 z"
     id="path1"
     sodipodi:nodetypes="ccccccccccccccccccccccccccccccccccccccccccccccccccccccccccccccccccccccccccccccccccccccccccccccccccccccccccccccccccccccccccccccccccccccccccccccccccccccccccccccccccccccccccccccccccccccccccccccccccccccccccccccccccccccccccccccccccccccccccccccccccccccccccccccccccccccccccccccccccccccccccccccccccccccccccccccccccccccccccccccccccccccccccccccccccccccccccccccccccccccc" /><path
     d="m 121.15946,1068.1682 c 0,-3.7073 28.78043,-81.10737 81.52835,-221.09712 48.69612,-27.9943 199.84404,-72.60714 377.12516,-199.41405 4.47641,29.41342 9.4146,58.77519 14.21272,88.14467 -67.28556,50.31401 -142.14499,88.60815 -216.53937,127.03319 -16.2004,28.65383 -36.439,55.01104 -55.21549,82.07642 C 184.65517,1029.9105 152.41499,1046.2848 121.15946,1068.1682 Z M 94.106975,717.92552 c 7.784995,-29.05397 16.665645,-60.42431 22.007255,-80.35944 49.00706,49.00705 119.04147,79.28266 191.61923,121.18545 -29.44459,13.62029 -58.82191,27.38473 -88.20468,41.13762 -46.87396,-27.06269 -85.52376,-42.06558 -125.421805,-81.96363 z"
     style="fill:#d76b71;fill-opacity:1;stroke-width:1.28745"
     id="path1-2" /></svg>
